<svg width="158" height="158" viewBox="0 0 158 158" fill="none" xmlns="http://www.w3.org/2000/svg">
<path d="M79 0C122.63 0 158 35.3695 158 79C158 122.63 122.63 158 79 158C62.6842 158 47.5243 153.053 34.9365 144.578C35.4751 142.789 36.0551 140.92 36.6729 138.986C39.9649 128.681 44.2885 116.647 48.9932 105.188C53.7027 93.7161 58.7724 82.8737 63.5479 74.9238C65.9395 70.9424 68.2188 67.7521 70.2998 65.5791C72.4551 63.3287 74.0901 62.4953 75.1875 62.4951C76.1899 62.4952 77.1183 62.953 78.0547 64.0674C79.0221 65.2188 79.8988 66.9667 80.6934 69.25C82.2818 73.8149 83.3631 79.961 84.4502 86.2969C85.5219 92.5431 86.6003 98.9817 88.2051 103.848C89.0068 106.278 89.9841 108.462 91.2559 110.064C92.5547 111.701 94.2723 112.855 96.4678 112.855C100.967 112.855 103.812 109.182 105.703 104.892C107.641 100.495 108.93 94.6913 109.987 88.9756C111.063 83.1617 111.893 77.4866 112.92 72.9824C113.431 70.7422 113.967 68.9109 114.558 67.5869C115.11 66.3489 115.576 65.8644 115.838 65.7041L115.938 65.6543C116.557 65.4183 116.96 65.4663 117.413 65.8008C118.014 66.2444 118.816 67.2945 119.699 69.5225C121.451 73.9407 123.169 82.044 124.877 95.8672L124.885 95.9287L124.896 95.9893C125.078 96.8938 125.407 97.709 125.917 98.3262C126.427 98.9431 127.245 99.4863 128.27 99.3838C129.29 99.2815 129.983 98.5906 130.361 97.8936C130.741 97.1937 130.905 96.3382 130.905 95.4297V95.4033L130.904 95.377C130.592 85.5918 129.603 73.2065 127.173 63.5391C125.963 58.727 124.357 54.42 122.184 51.4443C119.97 48.4134 116.953 46.5285 113.136 47.3359L112.829 47.4082C109.7 48.2033 107.795 50.7755 106.538 53.5947C105.235 56.5169 104.44 60.1251 103.736 63.415C103.009 66.816 102.388 69.8266 101.47 71.9316C101.015 72.9734 100.558 73.6164 100.13 73.9648C99.7707 74.2569 99.387 74.3863 98.8105 74.292L98.7109 74.2666C98.4525 74.1793 98.0179 73.8668 97.5 72.8027C96.9295 71.6303 96.4467 69.9186 96.0117 67.7324C95.1308 63.3044 94.5776 57.7305 93.6318 51.8135C92.7108 46.0513 91.4315 40.1143 89.0977 35.5908C86.7334 31.0087 83.1139 27.592 77.5303 27.5918C74.6502 27.5918 71.2544 29.1275 67.6641 31.4854C64.0093 33.8856 59.8958 37.3136 55.5186 41.4648C46.7578 49.7734 36.792 61.1246 27.1172 73.3604C19.0333 83.5841 11.1325 94.4523 4.28223 104.721C1.50725 96.6579 0 88.005 0 79C0 35.3695 35.3695 0 79 0Z" fill="white"/>
<path d="M79 0C122.63 0 158 35.3695 158 79C158 122.63 122.63 158 79 158C62.6842 158 47.5243 153.053 34.9365 144.578C35.4751 142.789 36.0551 140.92 36.6729 138.986C39.9649 128.681 44.2885 116.647 48.9932 105.188C53.7027 93.7161 58.7724 82.8737 63.5479 74.9238C65.9395 70.9424 68.2188 67.7521 70.2998 65.5791C72.4551 63.3287 74.0901 62.4953 75.1875 62.4951C76.1899 62.4952 77.1183 62.953 78.0547 64.0674C79.0221 65.2188 79.8988 66.9667 80.6934 69.25C82.2818 73.8149 83.3631 79.961 84.4502 86.2969C85.5219 92.5431 86.6003 98.9817 88.2051 103.848C89.0068 106.278 89.9841 108.462 91.2559 110.064C92.5547 111.701 94.2723 112.855 96.4678 112.855C100.967 112.855 103.812 109.182 105.703 104.892C107.641 100.495 108.93 94.6913 109.987 88.9756C111.063 83.1617 111.893 77.4866 112.92 72.9824C113.431 70.7422 113.967 68.9109 114.558 67.5869C115.11 66.3489 115.576 65.8644 115.838 65.7041L115.938 65.6543C116.557 65.4183 116.96 65.4663 117.413 65.8008C118.014 66.2444 118.816 67.2945 119.699 69.5225C121.451 73.9407 123.169 82.044 124.877 95.8672L124.885 95.9287L124.896 95.9893C125.078 96.8938 125.407 97.709 125.917 98.3262C126.427 98.9431 127.245 99.4863 128.27 99.3838C129.29 99.2815 129.983 98.5906 130.361 97.8936C130.741 97.1937 130.905 96.3382 130.905 95.4297V95.4033L130.904 95.377C130.592 85.5918 129.603 73.2065 127.173 63.5391C125.963 58.727 124.357 54.42 122.184 51.4443C119.97 48.4134 116.953 46.5285 113.136 47.3359L112.829 47.4082C109.7 48.2033 107.795 50.7755 106.538 53.5947C105.235 56.5169 104.44 60.1251 103.736 63.415C103.009 66.816 102.388 69.8266 101.47 71.9316C101.015 72.9734 100.558 73.6164 100.13 73.9648C99.7707 74.2569 99.387 74.3863 98.8105 74.292L98.7109 74.2666C98.4525 74.1793 98.0179 73.8668 97.5 72.8027C96.9295 71.6303 96.4467 69.9186 96.0117 67.7324C95.1308 63.3044 94.5776 57.7305 93.6318 51.8135C92.7108 46.0513 91.4315 40.1143 89.0977 35.5908C86.7334 31.0087 83.1139 27.592 77.5303 27.5918C74.6502 27.5918 71.2544 29.1275 67.6641 31.4854C64.0093 33.8856 59.8958 37.3136 55.5186 41.4648C46.7578 49.7734 36.792 61.1246 27.1172 73.3604C19.0333 83.5841 11.1325 94.4523 4.28223 104.721C1.50725 96.6579 0 88.005 0 79C0 35.3695 35.3695 0 79 0Z" fill="#0443F2"/>
</svg>
