<?xml version="1.0" encoding="UTF-8" standalone="no"?><!DOCTYPE svg PUBLIC "-//W3C//DTD SVG 1.1//EN" "http://www.w3.org/Graphics/SVG/1.1/DTD/svg11.dtd"><svg width="100%" height="100%" viewBox="0 0 1000 152" version="1.1" xmlns="http://www.w3.org/2000/svg" xmlns:xlink="http://www.w3.org/1999/xlink" xml:space="preserve" xmlns:serif="http://www.serif.com/" style="fill-rule:evenodd;clip-rule:evenodd;stroke-linejoin:round;stroke-miterlimit:2;"><rect id="mosa-cloud-logo-white" x="0" y="0" width="1000" height="152" style="fill:none;"/><clipPath id="_clip1"><rect x="0" y="0" width="1000" height="151.427"/></clipPath><g clip-path="url(#_clip1)"><g><path d="M75.605,0.013c36.007,-1.16 31.853,75.575 46.804,79.318c14.401,3.605 12.601,-46.843 39.603,-46.863c9.001,-0.006 18.002,7.148 25.202,18.02l0,52.277c-12.756,-26.77 -16.971,-38.027 -27.002,-34.251c-12.408,4.671 -16.2,75.712 -41.403,75.712c-25.202,0 -23.402,-79.317 -46.804,-81.114c-17.949,-1.377 -46.23,45.248 -72.005,88.325l0,-100.892c29.793,-28.857 59.404,-50.01 75.605,-50.532Zm313.179,36.433c5.746,0 11.006,1.022 15.778,3.067c4.87,1.948 9.107,4.724 12.71,8.327c3.604,3.604 6.379,7.84 8.327,12.71c2.045,4.869 3.068,10.178 3.068,15.924c0,5.746 -1.023,11.054 -3.068,15.924c-1.948,4.87 -4.723,9.155 -8.327,12.856c-3.603,3.603 -7.84,6.428 -12.71,8.473c-4.772,1.948 -10.032,2.922 -15.778,2.922c-5.649,0 -10.908,-0.974 -15.778,-2.922c-4.869,-2.045 -9.106,-4.87 -12.71,-8.473c-3.604,-3.701 -6.428,-7.986 -8.473,-12.856c-1.948,-4.87 -2.922,-10.178 -2.922,-15.924c0,-5.746 0.974,-11.055 2.922,-15.924c2.045,-4.87 4.87,-9.106 8.473,-12.71c3.603,-3.603 7.84,-6.379 12.71,-8.327c4.87,-2.045 10.129,-3.067 15.778,-3.067Zm225.033,49.963c2.822,0 5.354,0.681 7.596,2.045c2.335,1.363 4.189,3.214 5.551,5.551c1.46,2.241 2.193,4.724 2.193,7.451c0,2.727 -0.733,5.26 -2.193,7.597c-1.362,2.337 -3.216,4.188 -5.551,5.551c-2.242,1.364 -4.774,2.045 -7.596,2.045c-2.827,0 -5.458,-0.681 -7.891,-2.045c-2.335,-1.363 -4.189,-3.214 -5.551,-5.551c-1.362,-2.337 -2.045,-4.87 -2.045,-7.597c0,-2.727 0.684,-5.211 2.045,-7.451c1.362,-2.337 3.216,-4.188 5.551,-5.551c2.434,-1.363 5.064,-2.045 7.891,-2.045Zm173.297,-49.963c5.748,0 11.003,1.022 15.777,3.067c4.873,1.948 9.105,4.724 12.709,8.327c3.604,3.604 6.382,7.84 8.329,12.71c2.045,4.869 3.068,10.178 3.068,15.924c0,5.746 -1.023,11.054 -3.068,15.924c-1.947,4.87 -4.725,9.155 -8.329,12.856c-3.604,3.603 -7.837,6.428 -12.709,8.473c-4.774,1.948 -10.03,2.922 -15.777,2.922c-5.649,0 -10.91,-0.974 -15.777,-2.922c-4.873,-2.045 -9.105,-4.87 -12.709,-8.473c-3.604,-3.701 -6.431,-7.986 -8.476,-12.856c-1.947,-4.87 -2.92,-10.178 -2.92,-15.924c0,-5.746 0.973,-11.055 2.92,-15.924c2.045,-4.87 4.873,-9.106 8.476,-12.71c3.604,-3.603 7.837,-6.379 12.709,-8.327c4.867,-2.045 10.128,-3.067 15.777,-3.067Zm-313.36,0c6.623,0 13.392,1.119 20.307,3.359l0,22.791c-5.454,-2.63 -10.568,-4.383 -15.34,-5.259c-4.773,-0.877 -8.62,-0.974 -11.542,-0.292c-2.922,0.584 -4.383,1.899 -4.383,3.944c0,1.364 0.827,2.435 2.483,3.214c1.753,0.682 3.945,1.315 6.574,1.899c2.727,0.585 5.6,1.364 8.62,2.337c3.117,0.974 5.99,2.338 8.62,4.091c2.727,1.655 4.918,3.993 6.574,7.012c1.753,2.922 2.63,6.72 2.63,11.396c0,6.038 -1.705,11.005 -5.113,14.901c-3.311,3.799 -7.792,6.574 -13.441,8.328c-5.649,1.753 -11.98,2.483 -18.992,2.191c-6.915,-0.195 -13.976,-1.315 -21.183,-3.36l0,-22.791c4.091,1.851 8.181,3.312 12.271,4.383c4.091,0.974 7.792,1.558 11.104,1.753c3.311,0.195 5.99,-0.049 8.035,-0.73c2.045,-0.779 3.068,-2.046 3.068,-3.799c0,-1.364 -0.877,-2.435 -2.63,-3.214c-1.655,-0.779 -3.847,-1.461 -6.574,-2.046c-2.727,-0.681 -5.649,-1.461 -8.765,-2.337c-3.019,-0.974 -5.893,-2.289 -8.62,-3.945c-2.727,-1.753 -4.968,-4.042 -6.72,-6.866c-1.656,-2.921 -2.483,-6.671 -2.483,-11.249c0,-5.454 1.559,-10.08 4.675,-13.878c3.214,-3.896 7.499,-6.818 12.855,-8.766c5.357,-2.045 11.347,-3.067 17.97,-3.067Zm68.315,0.292c3.505,0 6.814,0.584 9.931,1.753c3.117,1.071 5.895,2.581 8.329,4.529l0,-4.237l24.106,0l0,75.529l-24.106,0l0,-4.383c-2.434,2.045 -5.212,3.603 -8.329,4.675c-3.019,1.169 -6.278,1.753 -9.789,1.753c-4.966,-0.001 -9.641,-0.925 -14.022,-2.776c-4.386,-1.948 -8.28,-4.675 -11.687,-8.181c-3.314,-3.603 -5.944,-7.84 -7.891,-12.71c-1.848,-4.869 -2.773,-10.275 -2.773,-16.216c0,-6.038 0.924,-11.492 2.773,-16.362c1.947,-4.87 4.577,-9.01 7.891,-12.418c3.407,-3.507 7.301,-6.185 11.687,-8.035c4.38,-1.948 9.007,-2.922 13.879,-2.922Zm319.786,44.704c0,3.896 0.88,7.061 2.63,9.496c1.848,2.337 4.725,3.506 8.619,3.506c3.899,0 6.918,-1.12 9.062,-3.36c2.138,-2.24 3.21,-5.454 3.21,-9.642l0,-42.659l24.106,0l0,75.529l-24.106,0l0,-3.799c-2.63,1.851 -5.6,3.263 -8.908,4.237c-3.216,1.071 -6.721,1.607 -10.522,1.607c-5.551,0 -10.467,-1.266 -14.754,-3.799c-4.189,-2.532 -7.498,-6.185 -9.931,-10.957c-2.341,-4.773 -3.511,-10.421 -3.511,-16.946l0,-45.873l24.106,0l0,42.659Zm138.171,32.871l-24.106,0l0,-4.383c-2.434,2.045 -5.212,3.603 -8.329,4.675c-3.019,1.169 -6.278,1.753 -9.783,1.753c-4.971,0 -9.647,-0.974 -14.027,-2.922c-4.386,-1.948 -8.28,-4.675 -11.687,-8.181c-3.314,-3.604 -5.944,-7.84 -7.891,-12.71c-1.848,-4.87 -2.773,-10.227 -2.773,-16.07c0,-5.941 0.924,-11.347 2.773,-16.217c1.947,-4.869 4.577,-9.058 7.891,-12.564c3.407,-3.506 7.301,-6.185 11.687,-8.035c4.38,-1.948 9.007,-2.922 13.879,-2.922c3.505,0 6.814,0.584 9.931,1.753c3.117,1.071 5.895,2.581 8.329,4.529l0,-35.354l24.106,0l0,106.647Zm-328.142,-76.991c7.109,-0.779 14.705,0.049 22.793,2.483l0,22.499c-5.649,-2.727 -11.058,-3.993 -16.22,-3.799c-5.162,0.195 -9.395,1.802 -12.709,4.821c-3.309,2.922 -4.966,7.304 -4.966,13.148c0,5.843 1.657,10.275 4.966,13.294c3.314,2.922 7.547,4.48 12.709,4.675c5.162,0.097 10.571,-1.169 16.22,-3.798l0,22.498c-8.088,2.435 -15.684,3.263 -22.793,2.484c-7.109,-0.682 -13.344,-2.728 -18.697,-6.136c-5.359,-3.409 -9.548,-7.889 -12.567,-13.44c-3.019,-5.649 -4.528,-12.174 -4.528,-19.576c0,-7.402 1.509,-13.879 4.528,-19.43c3.019,-5.649 7.208,-10.178 12.567,-13.587c5.354,-3.409 11.588,-5.454 18.697,-6.136Zm-362.892,-0.584c5.941,0 11.054,1.217 15.339,3.652c4.383,2.435 7.744,5.892 10.081,10.372c2.435,4.48 3.653,9.886 3.653,16.217l0,47.333l-24.105,0l0,-44.412c0,-3.311 -0.779,-5.99 -2.338,-8.035c-1.461,-2.143 -3.847,-3.214 -7.158,-3.214c-3.214,0 -5.746,1.023 -7.597,3.068c-1.753,1.948 -2.63,4.675 -2.63,8.181l0,44.412l-24.105,0l0,-44.412c0,-3.311 -0.779,-5.99 -2.337,-8.035c-1.461,-2.143 -3.848,-3.214 -7.159,-3.214c-3.214,0 -5.746,1.023 -7.597,3.068c-1.753,1.948 -2.629,4.675 -2.629,8.181l0,44.412l-24.105,0l0,-75.529l24.105,0l0,3.798c2.532,-1.851 5.357,-3.263 8.474,-4.237c3.117,-1.071 6.33,-1.607 9.642,-1.607c3.603,0 6.915,0.633 9.934,1.899c3.019,1.169 5.6,2.922 7.743,5.26c3.117,-2.241 6.623,-3.993 10.518,-5.26c3.993,-1.266 8.084,-1.899 12.272,-1.899Zm425.509,77.575l-24.106,0l0,-106.647l24.106,0l0,106.647Zm-189.074,-56.245c-4.774,0 -8.569,1.655 -11.397,4.967c-2.723,3.311 -4.091,7.791 -4.091,13.44c0,5.649 1.367,10.177 4.091,13.586c2.827,3.311 6.623,4.967 11.397,4.967c4.676,0 8.427,-1.705 11.249,-5.113c2.827,-3.409 4.238,-7.889 4.238,-13.44c0,-5.552 -1.411,-9.983 -4.238,-13.295c-2.822,-3.409 -6.573,-5.113 -11.249,-5.113Zm415.591,0c-4.769,0 -8.569,1.655 -11.391,4.967c-2.729,3.311 -4.091,7.791 -4.091,13.44c0,5.649 1.362,10.177 4.091,13.586c2.822,3.311 6.623,4.967 11.391,4.967c4.676,0 8.427,-1.705 11.249,-5.113c2.827,-3.409 4.238,-7.889 4.238,-13.44c0,-5.552 -1.411,-9.983 -4.238,-13.295c-2.822,-3.409 -6.573,-5.113 -11.249,-5.113Zm-572.233,0.145c-4.773,0 -8.619,1.705 -11.541,5.114c-2.825,3.311 -4.237,7.694 -4.237,13.148c0,5.357 1.413,9.788 4.237,13.294c2.922,3.409 6.769,5.114 11.541,5.114c4.772,0 8.571,-1.705 11.396,-5.114c2.921,-3.506 4.382,-7.937 4.382,-13.294c0,-5.454 -1.461,-9.837 -4.382,-13.148c-2.825,-3.409 -6.624,-5.114 -11.396,-5.114Zm398.329,0c-4.774,0 -8.619,1.705 -11.539,5.114c-2.827,3.311 -4.238,7.694 -4.238,13.148c0,5.357 1.411,9.788 4.238,13.294c2.92,3.409 6.765,5.114 11.539,5.114c4.774,0 8.569,-1.705 11.397,-5.114c2.92,-3.506 4.38,-7.937 4.38,-13.294c0,-5.454 -1.46,-9.837 -4.38,-13.148c-2.827,-3.409 -6.623,-5.114 -11.397,-5.114Z" style="fill:#fff;fill-rule:nonzero;"/></g></g></svg>