<?xml version="1.0" encoding="UTF-8" standalone="no"?><!DOCTYPE svg PUBLIC "-//W3C//DTD SVG 1.1//EN" "http://www.w3.org/Graphics/SVG/1.1/DTD/svg11.dtd"><svg width="100%" height="100%" viewBox="0 0 1000 152" version="1.1" xmlns="http://www.w3.org/2000/svg" xmlns:xlink="http://www.w3.org/1999/xlink" xml:space="preserve" xmlns:serif="http://www.serif.com/" style="fill-rule:evenodd;clip-rule:evenodd;stroke-linejoin:round;stroke-miterlimit:2;"><rect id="mosa-cloud-logo" x="0" y="0" width="1000" height="152" style="fill:none;"/><clipPath id="_clip1"><rect x="0" y="0" width="1000" height="152"/></clipPath><g clip-path="url(#_clip1)"><g><path d="M75.603,0.013c36.006,-1.161 31.852,75.614 46.802,79.359c14.4,3.607 12.601,-46.868 39.602,-46.888c9.001,-0.007 18.001,7.151 25.202,18.03l0,52.305c-12.755,-26.784 -16.971,-38.047 -27.001,-34.269c-12.408,4.673 -16.2,75.752 -41.402,75.752c-25.202,0 -23.401,-79.359 -46.802,-81.156c-17.948,-1.378 -46.229,45.271 -72.003,88.37l-0,-100.944c29.792,-28.871 59.402,-50.035 75.603,-50.558Zm313.171,36.451c5.746,0 11.005,1.023 15.777,3.07c4.87,1.949 9.107,4.726 12.71,8.332c3.604,3.605 6.379,7.844 8.327,12.716c2.045,4.872 3.068,10.183 3.068,15.932c0,5.749 -1.023,11.061 -3.068,15.932c-1.948,4.872 -4.723,9.16 -8.327,12.863c-3.603,3.606 -7.84,6.431 -12.71,8.478c-4.772,1.949 -10.031,2.923 -15.777,2.923c-5.649,0 -10.908,-0.974 -15.778,-2.923c-4.869,-2.046 -9.106,-4.872 -12.709,-8.478c-3.604,-3.703 -6.428,-7.991 -8.473,-12.863c-1.948,-4.872 -2.922,-10.183 -2.922,-15.932c0,-5.749 0.974,-11.06 2.922,-15.932c2.045,-4.872 4.87,-9.111 8.473,-12.716c3.603,-3.605 7.84,-6.383 12.709,-8.332c4.87,-2.046 10.129,-3.07 15.778,-3.07Zm225.027,49.989c2.822,0 5.354,0.682 7.596,2.047c2.335,1.364 4.189,3.216 5.551,5.554c1.46,2.241 2.193,4.726 2.193,7.454c0,2.729 -0.733,5.262 -2.193,7.601c-1.362,2.339 -3.215,4.19 -5.551,5.554c-2.242,1.364 -4.774,2.046 -7.596,2.046c-2.827,0 -5.458,-0.682 -7.891,-2.046c-2.335,-1.364 -4.189,-3.216 -5.551,-5.554c-1.362,-2.339 -2.045,-4.872 -2.045,-7.601c0,-2.729 0.684,-5.213 2.045,-7.454c1.362,-2.339 3.215,-4.19 5.551,-5.554c2.433,-1.365 5.064,-2.047 7.891,-2.047Zm173.292,-49.989c5.747,0 11.003,1.023 15.777,3.07c4.872,1.949 9.105,4.727 12.709,8.332c3.604,3.605 6.382,7.844 8.329,12.716c2.045,4.872 3.068,10.183 3.068,15.932c0,5.749 -1.023,11.061 -3.068,15.932c-1.947,4.872 -4.725,9.16 -8.329,12.863c-3.604,3.606 -7.836,6.431 -12.709,8.478c-4.774,1.949 -10.029,2.923 -15.777,2.923c-5.649,0 -10.91,-0.974 -15.777,-2.923c-4.872,-2.046 -9.105,-4.872 -12.709,-8.478c-3.604,-3.703 -6.431,-7.991 -8.476,-12.863c-1.947,-4.872 -2.92,-10.183 -2.92,-15.932c0,-5.749 0.973,-11.06 2.92,-15.932c2.045,-4.872 4.872,-9.111 8.476,-12.716c3.604,-3.606 7.836,-6.383 12.709,-8.332c4.867,-2.046 10.128,-3.07 15.777,-3.07Zm-313.353,0c6.622,0 13.391,1.121 20.306,3.362l0,22.802c-5.454,-2.631 -10.567,-4.385 -15.339,-5.262c-4.772,-0.877 -8.619,-0.974 -11.541,-0.292c-2.922,0.585 -4.382,1.9 -4.382,3.947c0,1.364 0.827,2.436 2.483,3.216c1.753,0.682 3.944,1.315 6.574,1.9c2.727,0.584 5.6,1.364 8.619,2.339c3.117,0.974 5.99,2.339 8.619,4.092c2.727,1.657 4.918,3.996 6.574,7.017c1.753,2.923 2.63,6.723 2.63,11.401c0,6.041 -1.705,11.011 -5.113,14.909c-3.311,3.8 -7.792,6.577 -13.441,8.331c-5.649,1.754 -11.979,2.485 -18.992,2.192c-6.914,-0.195 -13.975,-1.316 -21.182,-3.362l0,-22.801c4.09,1.851 8.181,3.312 12.271,4.384c4.091,0.974 7.792,1.559 11.103,1.754c3.311,0.195 5.99,-0.049 8.035,-0.731c2.045,-0.779 3.068,-2.046 3.068,-3.8c0,-1.364 -0.877,-2.436 -2.63,-3.216c-1.655,-0.78 -3.847,-1.461 -6.574,-2.046c-2.727,-0.682 -5.649,-1.462 -8.765,-2.339c-3.019,-0.974 -5.893,-2.29 -8.619,-3.947c-2.727,-1.754 -4.968,-4.044 -6.72,-6.87c-1.656,-2.923 -2.483,-6.675 -2.483,-11.255c0,-5.457 1.559,-10.086 4.675,-13.886c3.214,-3.898 7.498,-6.821 12.855,-8.77c5.357,-2.046 11.347,-3.07 17.97,-3.07Zm68.313,0.292c3.505,0 6.814,0.585 9.931,1.754c3.117,1.072 5.895,2.583 8.329,4.531l0,-4.239l24.105,0l0,75.569l-24.105,0l0,-4.385c-2.433,2.046 -5.212,3.605 -8.329,4.677c-3.019,1.169 -6.278,1.754 -9.789,1.754c-4.965,0 -9.641,-0.926 -14.021,-2.777c-4.386,-1.949 -8.279,-4.678 -11.686,-8.185c-3.314,-3.606 -5.944,-7.844 -7.891,-12.716c-1.848,-4.872 -2.773,-10.281 -2.773,-16.225c0,-6.041 0.924,-11.498 2.773,-16.371c1.947,-4.872 4.577,-9.013 7.891,-12.424c3.407,-3.508 7.3,-6.187 11.686,-8.039c4.38,-1.949 9.007,-2.924 13.879,-2.924Zm319.778,44.727c0,3.898 0.88,7.065 2.63,9.501c1.848,2.339 4.725,3.508 8.618,3.508c3.899,0 6.918,-1.121 9.061,-3.362c2.138,-2.241 3.21,-5.457 3.21,-9.647l0,-42.681l24.105,0l0,75.569l-24.105,0l0,-3.801c-2.63,1.852 -5.6,3.265 -8.908,4.239c-3.215,1.072 -6.721,1.608 -10.521,1.608c-5.551,0 -10.467,-1.267 -14.754,-3.8c-4.189,-2.534 -7.497,-6.188 -9.931,-10.963c-2.341,-4.775 -3.511,-10.427 -3.511,-16.956l0,-45.897l24.105,0l0,42.681Zm138.168,32.888l-24.105,0l0,-4.385c-2.433,2.046 -5.212,3.605 -8.329,4.677c-3.019,1.169 -6.278,1.754 -9.783,1.754c-4.971,0 -9.646,-0.974 -14.027,-2.923c-4.386,-1.949 -8.279,-4.677 -11.686,-8.185c-3.314,-3.605 -5.944,-7.844 -7.891,-12.717c-1.848,-4.872 -2.773,-10.232 -2.773,-16.079c0,-5.944 0.924,-11.352 2.773,-16.224c1.947,-4.872 4.577,-9.062 7.891,-12.571c3.407,-3.508 7.3,-6.187 11.686,-8.039c4.38,-1.949 9.007,-2.924 13.879,-2.924c3.505,0 6.814,0.585 9.931,1.754c3.117,1.072 5.895,2.583 8.329,4.531l0,-35.373l24.105,0l0,106.703Zm-328.134,-77.03c7.109,-0.78 14.705,0.048 22.793,2.485l0,22.51c-5.649,-2.728 -11.057,-3.995 -16.22,-3.801c-5.162,0.195 -9.395,1.803 -12.709,4.823c-3.308,2.923 -4.965,7.309 -4.965,13.155c0,5.847 1.657,10.281 4.965,13.302c3.314,2.923 7.547,4.482 12.709,4.678c5.162,0.097 10.571,-1.17 16.22,-3.801l0,22.51c-8.088,2.436 -15.684,3.264 -22.793,2.485c-7.109,-0.682 -13.343,-2.728 -18.697,-6.139c-5.359,-3.41 -9.548,-7.893 -12.567,-13.447c-3.019,-5.652 -4.528,-12.181 -4.528,-19.587c0,-7.406 1.509,-13.886 4.528,-19.44c3.019,-5.652 7.208,-10.183 12.567,-13.594c5.354,-3.41 11.588,-5.457 18.697,-6.138Zm-362.883,-0.585c5.94,0 11.054,1.219 15.339,3.654c4.383,2.436 7.743,5.896 10.081,10.378c2.435,4.482 3.652,9.89 3.652,16.224l0,47.359l-24.105,0l0,-44.435c0,-3.313 -0.779,-5.993 -2.338,-8.039c-1.461,-2.144 -3.847,-3.215 -7.158,-3.215c-3.214,0 -5.746,1.023 -7.596,3.069c-1.753,1.949 -2.63,4.678 -2.63,8.185l0,44.435l-24.105,0l0,-44.435c0,-3.313 -0.779,-5.993 -2.337,-8.039c-1.461,-2.144 -3.848,-3.215 -7.159,-3.215c-3.214,0 -5.746,1.023 -7.597,3.069c-1.753,1.949 -2.629,4.678 -2.629,8.185l0,44.435l-24.105,0l0,-75.569l24.105,0l0,3.801c2.532,-1.852 5.357,-3.264 8.473,-4.239c3.117,-1.072 6.33,-1.609 9.642,-1.609c3.603,0 6.915,0.634 9.934,1.901c3.019,1.169 5.6,2.923 7.742,5.262c3.117,-2.241 6.623,-3.995 10.518,-5.262c3.993,-1.267 8.084,-1.901 12.272,-1.901Zm425.498,77.615l-24.105,0l0,-106.703l24.105,0l0,106.703Zm-189.069,-56.275c-4.774,0 -8.569,1.657 -11.396,4.97c-2.723,3.313 -4.09,7.796 -4.09,13.447c0,5.652 1.367,10.184 4.09,13.594c2.827,3.313 6.622,4.97 11.396,4.97c4.676,0 8.427,-1.705 11.249,-5.116c2.827,-3.41 4.238,-7.893 4.238,-13.447c0,-5.554 -1.411,-9.988 -4.238,-13.301c-2.822,-3.411 -6.573,-5.116 -11.249,-5.116Zm415.581,0c-4.769,0 -8.569,1.657 -11.391,4.97c-2.729,3.313 -4.09,7.796 -4.09,13.447c0,5.652 1.362,10.184 4.09,13.594c2.822,3.313 6.622,4.97 11.391,4.97c4.676,0 8.427,-1.705 11.249,-5.116c2.827,-3.41 4.238,-7.893 4.238,-13.447c0,-5.554 -1.411,-9.988 -4.238,-13.301c-2.822,-3.411 -6.573,-5.116 -11.249,-5.116Zm-572.218,0.147c-4.772,0 -8.619,1.705 -11.541,5.115c-2.824,3.314 -4.237,7.698 -4.237,13.155c0,5.36 1.413,9.793 4.237,13.302c2.922,3.41 6.768,5.115 11.541,5.115c4.772,0 8.571,-1.705 11.395,-5.115c2.921,-3.508 4.382,-7.942 4.382,-13.302c0,-5.457 -1.461,-9.842 -4.382,-13.155c-2.824,-3.41 -6.623,-5.115 -11.395,-5.115Zm398.319,0c-4.774,0 -8.618,1.705 -11.539,5.115c-2.827,3.314 -4.238,7.698 -4.238,13.155c0,5.36 1.411,9.793 4.238,13.302c2.92,3.41 6.765,5.115 11.539,5.115c4.774,0 8.569,-1.705 11.396,-5.115c2.92,-3.508 4.38,-7.942 4.38,-13.302c0,-5.457 -1.46,-9.842 -4.38,-13.155c-2.827,-3.41 -6.622,-5.115 -11.396,-5.115Z" style="fill:url(#_Linear2);fill-rule:nonzero;"/></g></g><defs><linearGradient id="_Linear2" x1="212" y1="-212" x2="788" y2="364" gradientUnits="userSpaceOnUse"><stop offset="0" style="stop-color:#0284c7;stop-opacity:1"/><stop offset="1" style="stop-color:#0064c8;stop-opacity:1"/></linearGradient></defs></svg>