<svg width="192" height="192" viewBox="0 0 192 192" fill="none" xmlns="http://www.w3.org/2000/svg">
<path d="M32 48C32 39.1634 39.1634 32 48 32H144C152.837 32 160 39.1634 160 48V56H32V48Z" fill="#B835F5"/>
<path d="M56 24C56 19.5817 59.5817 16 64 16H72C76.4183 16 80 19.5817 80 24V32H56V24Z" fill="#B835F5"/>
<path d="M112 24C112 19.5817 115.582 16 120 16H128C132.418 16 136 19.5817 136 24V32H112V24Z" fill="#B835F5"/>
<path d="M160 144C160 152.837 152.837 160 144 160H48C39.1634 160 32 152.837 32 144V64H160V144ZM64 128C59.5817 128 56 131.582 56 136C56 140.418 59.5817 144 64 144C68.4183 144 72 140.418 72 136C72 131.582 68.4183 128 64 128ZM96 128C91.5817 128 88 131.582 88 136C88 140.418 91.5817 144 96 144C100.418 144 104 140.418 104 136C104 131.582 100.418 128 96 128ZM64 104C59.5817 104 56 107.582 56 112C56 116.418 59.5817 120 64 120C68.4183 120 72 116.418 72 112C72 107.582 68.4183 104 64 104ZM96 104C91.5817 104 88 107.582 88 112C88 116.418 91.5817 120 96 120C100.418 120 104 116.418 104 112C104 107.582 100.418 104 96 104ZM128 104C123.582 104 120 107.582 120 112C120 116.418 123.582 120 128 120C132.418 120 136 116.418 136 112C136 107.582 132.418 104 128 104ZM96 80C91.5817 80 88 83.5817 88 88C88 92.4183 91.5817 96 96 96C100.418 96 104 92.4183 104 88C104 83.5817 100.418 80 96 80ZM128 80C123.582 80 120 83.5817 120 88C120 92.4183 123.582 96 128 96C132.418 96 136 92.4183 136 88C136 83.5817 132.418 80 128 80Z" fill="#B835F5"/>
</svg>
