<svg width="96" height="96" viewBox="0 0 96 96" fill="none" xmlns="http://www.w3.org/2000/svg">
<path d="M64 16C68.4183 16 72 19.5817 72 24V37.501L81.0479 27.6045C83.5111 24.9102 88 26.6531 88 30.3037V65.6973C88 69.3478 83.5112 71.0906 81.0479 68.3965L72 58.501V72C72 76.4183 68.4183 80 64 80H16C11.5817 80 8 76.4183 8 72V24C8 19.5817 11.5817 16 16 16H64ZM40 60C37.7909 60 36 61.7909 36 64C36 66.2091 37.7909 68 40 68C42.2091 68 44 66.2091 44 64C44 61.7909 42.2091 60 40 60ZM56 60C53.7909 60 52 61.7909 52 64C52 66.2091 53.7909 68 56 68C58.2091 68 60 66.2091 60 64C60 61.7909 58.2091 60 56 60Z" fill="#00B574"/>
</svg>
