<?xml version="1.0" encoding="UTF-8" standalone="no"?><!DOCTYPE svg PUBLIC "-//W3C//DTD SVG 1.1//EN" "http://www.w3.org/Graphics/SVG/1.1/DTD/svg11.dtd"><svg width="100%" height="100%" viewBox="12 12 128 128" version="1.1" xmlns="http://www.w3.org/2000/svg" xmlns:xlink="http://www.w3.org/1999/xlink" xml:space="preserve" xmlns:serif="http://www.serif.com/" style="fill-rule:evenodd;clip-rule:evenodd;stroke-linejoin:round;stroke-miterlimit:2;"><rect id="mosa-cloud-logomark" x="0" y="0" width="152" height="152" style="fill:none;"/><g><path d="M64.308,26.824c23.387,-0.754 20.689,49.091 30.4,51.522c9.354,2.342 8.185,-30.428 25.723,-30.44c5.846,-0.004 11.692,4.643 16.369,11.705l0,33.957c-8.285,-17.389 -11.023,-24.701 -17.538,-22.248c-8.059,3.034 -10.523,49.18 -26.892,49.18c-16.369,0 -15.2,-51.522 -30.4,-52.689c-11.658,-0.895 -30.028,29.391 -46.769,57.372l-0,-65.536c19.351,-18.744 38.584,-32.484 49.108,-32.823Z" style="fill:url(#_Linear1);fill-rule:nonzero;"/></g><defs><linearGradient id="_Linear1" x1="37.4" y1="37.4" x2="115.2" y2="115.2" gradientUnits="userSpaceOnUse"><stop offset="0" style="stop-color:#0284c7;stop-opacity:1"/><stop offset="1" style="stop-color:#0064c8;stop-opacity:1"/></linearGradient></defs></svg>