<svg width="96" height="96" viewBox="0 0 96 96" fill="none" xmlns="http://www.w3.org/2000/svg">
<path d="M52 8V26C52 31.5228 56.4772 36 62 36H80V80C80 84.4183 76.4183 88 72 88H24C19.5817 88 16 84.4183 16 80V16C16 11.5817 19.5817 8 24 8H52ZM30 72C28.8954 72 28 72.8954 28 74C28 75.1046 28.8954 76 30 76H54C55.1046 76 56 75.1046 56 74C56 72.8954 55.1046 72 54 72H30ZM30 60C28.8954 60 28 60.8954 28 62C28 63.1046 28.8954 64 30 64H66C67.1046 64 68 63.1046 68 62C68 60.8954 67.1046 60 66 60H30ZM56.6865 8C58.808 8.00006 60.8426 8.84277 62.3428 10.3428L77.6572 25.6572C79.1572 27.1574 79.9999 29.192 80 31.3135V32H62C58.6863 32 56 29.3137 56 26V8H56.6865Z" fill="#06B6D4"/>
</svg>
