<svg width="96" height="96" viewBox="0 0 96 96" fill="none" xmlns="http://www.w3.org/2000/svg">
<path d="M88 69C88 73.4183 84.4183 77 80 77H16C11.5817 77 8 73.4183 8 69V29.875L43.7146 52.5314C46.3305 54.1909 49.6695 54.1909 52.2854 52.5314L88 29.875V69Z" fill="#F10656"/>
<path d="M83.3222 19C85.9057 19 88 21.0943 88 23.6778C88 25.2795 87.1805 26.7699 85.828 27.6279L52.2854 48.9064C49.6695 50.5659 46.3305 50.5659 43.7146 48.9064L10.172 27.6279C8.81949 26.7699 8 25.2795 8 23.6778C8 21.0943 10.0943 19 12.6778 19H83.3222Z" fill="#F10656"/>
</svg>
