<svg width="183" height="30" viewBox="0 0 183 30" fill="none" xmlns="http://www.w3.org/2000/svg">
<g clip-path="url(#clip0_552_24267)">
<path d="M3.7777 26.9329C3.5322 27.1577 3.1451 27.0746 3.07604 26.7489C3.02535 26.5099 3 26.2309 3 25.9122V14.9152C3 14.5699 3.02535 14.2744 3.07604 14.0287C3.14388 13.741 3.4603 13.672 3.6902 13.8578L10.7827 19.5901C11.0662 19.8191 11.0793 20.2467 10.8106 20.4928L3.7777 26.9329ZM6.08514 29.0001C5.68682 29.0001 5.33196 28.9603 5.02055 28.8806C5.00036 28.8753 4.9804 28.8699 4.96066 28.8644C4.58651 28.7597 4.53839 28.3067 4.82475 28.0441L12.147 21.33C12.3651 21.1299 12.6971 21.1204 12.9264 21.3076L14.113 22.2764C14.4317 22.5288 14.7576 22.7214 15.0907 22.8542C15.4238 22.9803 15.7606 23.0434 16.101 23.0434C16.4413 23.0434 16.7781 22.9803 17.1112 22.8542C17.4516 22.7214 17.7811 22.5288 18.0998 22.2764L19.2864 21.3076C19.5157 21.1204 19.8477 21.1299 20.0658 21.33L27.388 28.0441C27.6744 28.3067 27.6257 28.7586 27.2512 28.862C27.2282 28.8684 27.205 28.8745 27.1814 28.8806C26.8772 28.9603 26.526 29.0001 26.1277 29.0001H6.08514ZM29.1259 26.7489C29.0582 27.0682 28.6785 27.1558 28.4378 26.9354L21.4022 20.4928C21.1334 20.2467 21.1466 19.8191 21.43 19.5901L28.5259 13.8552C28.75 13.6741 29.0598 13.7483 29.1259 14.0287C29.1838 14.2744 29.2128 14.5699 29.2128 14.9152V25.9122C29.2128 26.2309 29.1838 26.5099 29.1259 26.7489Z" fill="#2727A0"/>
<path d="M7.76595 14.9183L4.4963 12.2497C3.73691 11.6299 3.73691 10.4695 4.4963 9.84969L14.786 1.4515C15.5236 0.849498 16.583 0.849499 17.3206 1.45151L27.6103 9.84969C28.3697 10.4695 28.3697 11.6299 27.6103 12.2497L24.4468 14.8316V11.3446C24.4468 10.2377 23.5495 9.34044 22.4426 9.34044H9.77015C8.66326 9.34044 7.76595 10.2377 7.76595 11.3446V14.9183Z" fill="#FBC63A"/>
<path d="M38.266 24V8.6H42.16L45.922 15.068L49.684 8.6H53.578V24H50.454V12.956L47.022 18.72H44.822L41.39 12.956V24H38.266ZM67.1197 22.196C66.0857 23.582 64.3697 24.44 62.2797 24.44C58.3417 24.44 56.1197 21.69 56.1197 18.456C56.1197 15.178 58.1877 12.472 61.8177 12.472C64.8977 12.472 66.9217 14.562 66.9217 17.466C66.9217 18.082 66.8337 18.654 66.7457 19.028H58.9797C59.2437 21.096 60.5197 21.932 62.2577 21.932C63.4677 21.932 64.5237 21.404 65.1177 20.612L67.1197 22.196ZM61.7517 14.76C60.3217 14.76 59.3757 15.552 59.0677 17.004H64.1717C64.1277 15.882 63.3137 14.76 61.7517 14.76ZM68.0935 22.394L69.9415 20.722C70.6235 21.58 71.4375 22.196 72.4935 22.196C73.3955 22.196 73.8575 21.668 73.8575 21.008C73.8575 19.072 68.5555 19.798 68.5555 15.904C68.5555 13.946 70.2055 12.472 72.5155 12.472C74.2095 12.472 75.7495 13.286 76.5415 14.364L74.6935 15.992C74.1215 15.288 73.3955 14.716 72.5375 14.716C71.6575 14.716 71.2395 15.2 71.2395 15.772C71.2395 17.664 76.5415 17.004 76.5415 20.832C76.4975 23.164 74.6275 24.44 72.5375 24.44C70.5575 24.44 69.1495 23.648 68.0935 22.394ZM77.5578 22.394L79.4058 20.722C80.0878 21.58 80.9018 22.196 81.9578 22.196C82.8598 22.196 83.3218 21.668 83.3218 21.008C83.3218 19.072 78.0198 19.798 78.0198 15.904C78.0198 13.946 79.6698 12.472 81.9798 12.472C83.6738 12.472 85.2138 13.286 86.0058 14.364L84.1578 15.992C83.5858 15.288 82.8598 14.716 82.0018 14.716C81.1218 14.716 80.7038 15.2 80.7038 15.772C80.7038 17.664 86.0058 17.004 86.0058 20.832C85.9618 23.164 84.0918 24.44 82.0018 24.44C80.0218 24.44 78.6138 23.648 77.5578 22.394ZM91.1786 24.33C88.9566 24.33 87.4386 23.054 87.4386 21.008C87.4386 19.336 88.7366 18.082 91.1126 17.686L94.5006 17.114V16.828C94.5006 15.662 93.6206 14.914 92.3446 14.914C91.2666 14.914 90.4306 15.42 89.8366 16.234L87.7906 14.672C88.7806 13.308 90.4086 12.472 92.4326 12.472C95.6446 12.472 97.2946 14.386 97.2946 16.828V24H94.5006V22.922C93.7966 23.78 92.4766 24.33 91.1786 24.33ZM90.2106 20.876C90.2106 21.624 90.8046 22.108 91.7506 22.108C93.0266 22.108 93.9506 21.514 94.5006 20.634V19.072L91.8606 19.512C90.6946 19.71 90.2106 20.194 90.2106 20.876ZM98.954 25.936C98.954 24.836 99.504 23.956 100.494 23.23C100.054 22.79 99.812 22.196 99.812 21.624C99.812 20.744 100.186 20.04 101.022 19.424C100.054 18.698 99.526 17.598 99.526 16.366C99.526 14.21 101.198 12.472 103.97 12.472C104.828 12.472 105.576 12.626 106.214 12.912H110.262V15.288H108.304C108.414 15.64 108.458 15.992 108.458 16.366C108.458 18.544 106.83 20.304 103.97 20.304C103.596 20.304 103.244 20.282 102.914 20.216C102.672 20.436 102.54 20.678 102.54 20.92C102.54 21.36 102.782 21.58 103.288 21.58H106.082C108.876 21.58 110.394 23.076 110.394 25.144C110.394 27.608 108.04 29.5 104.586 29.5C101.044 29.5 98.954 28.268 98.954 25.936ZM104.014 18.192C105.18 18.192 105.928 17.466 105.928 16.366C105.928 15.266 105.18 14.562 104.014 14.562C102.804 14.562 102.078 15.288 102.078 16.366C102.078 17.466 102.804 18.192 104.014 18.192ZM101.594 25.54C101.594 26.596 102.606 27.256 104.564 27.256C106.588 27.256 107.622 26.508 107.622 25.408C107.622 24.572 107.116 23.978 105.774 23.978H102.342C101.924 24.374 101.594 24.858 101.594 25.54ZM121.553 22.196C120.519 23.582 118.803 24.44 116.713 24.44C112.775 24.44 110.553 21.69 110.553 18.456C110.553 15.178 112.621 12.472 116.251 12.472C119.331 12.472 121.355 14.562 121.355 17.466C121.355 18.082 121.267 18.654 121.179 19.028H113.413C113.677 21.096 114.953 21.932 116.691 21.932C117.901 21.932 118.957 21.404 119.551 20.612L121.553 22.196ZM116.185 14.76C114.755 14.76 113.809 15.552 113.501 17.004H118.605C118.561 15.882 117.747 14.76 116.185 14.76ZM122.526 22.394L124.374 20.722C125.056 21.58 125.87 22.196 126.926 22.196C127.828 22.196 128.29 21.668 128.29 21.008C128.29 19.072 122.988 19.798 122.988 15.904C122.988 13.946 124.638 12.472 126.948 12.472C128.642 12.472 130.182 13.286 130.974 14.364L129.126 15.992C128.554 15.288 127.828 14.716 126.97 14.716C126.09 14.716 125.672 15.2 125.672 15.772C125.672 17.664 130.974 17.004 130.974 20.832C130.93 23.164 129.06 24.44 126.97 24.44C124.99 24.44 123.582 23.648 122.526 22.394Z" fill="#2727A0"/>
</g>
<rect x="143" y="11" width="40" height="13.6" rx="6.8" fill="#DAE2FF"/>
<path d="M150.133 21.7998V14.0998H152.399C154.005 14.0998 154.984 14.8918 154.984 16.1898C154.984 16.8168 154.698 17.3558 154.159 17.7078C154.973 18.0708 155.424 18.7308 155.424 19.5338C155.424 20.9418 154.335 21.7998 152.564 21.7998H150.133ZM152.432 15.3978H151.695V17.1358H152.432C153.026 17.1358 153.378 16.8168 153.378 16.2558C153.378 15.7168 153.026 15.3978 152.432 15.3978ZM152.652 18.4338H151.695V20.5018H152.652C153.378 20.5018 153.818 20.1168 153.818 19.4678C153.818 18.8078 153.378 18.4338 152.652 18.4338ZM156.917 21.7998V14.0998H161.405V15.3978H158.479V17.2238H160.965V18.5218H158.479V20.5018H161.405V21.7998H156.917ZM162.479 15.5188V14.0998H168.793V15.5188H166.417V21.7998H164.855V15.5188H162.479ZM168.346 21.7998L171.261 14.0998H173.307L176.222 21.7998H174.561L173.824 19.7978H170.744L170.007 21.7998H168.346ZM171.228 18.4668H173.34L172.284 15.5738L171.228 18.4668Z" fill="#304DDF"/>
<defs>
<clipPath id="clip0_552_24267">
<rect width="140" height="30" fill="white"/>
</clipPath>
</defs>
</svg>
