<svg width="460" height="91" viewBox="0 0 460 91" fill="none" xmlns="http://www.w3.org/2000/svg">
<g clip-path="url(#clip0_70_14)">
<path d="M339.831 22.75H273.325C261.082 22.75 251.157 32.6269 251.157 44.8106C251.157 56.9943 261.082 66.8712 273.325 66.8712H339.831C352.075 66.8712 362 56.9943 362 44.8106C362 32.6269 352.075 22.75 339.831 22.75Z" fill="#ECECFE"/>
<path d="M270.923 55.8408V34.6074H277.202C281.652 34.6074 284.365 36.7914 284.365 40.3708C284.365 42.0998 283.573 43.5861 282.079 44.5568C284.335 45.5578 285.585 47.3778 285.585 49.5921C285.585 53.4748 282.567 55.8408 277.659 55.8408H270.923ZM277.293 38.1868H275.251V42.9794H277.293C278.94 42.9794 279.915 42.0998 279.915 40.5528C279.915 39.0664 278.94 38.1868 277.293 38.1868ZM277.903 46.5588H275.251V52.2614H277.903C279.915 52.2614 281.134 51.1998 281.134 49.4101C281.134 47.5901 279.915 46.5588 277.903 46.5588ZM289.722 55.8408V34.6074H302.158V38.1868H294.05V43.2221H300.939V46.8014H294.05V52.2614H302.158V55.8408H289.722ZM305.135 38.5204V34.6074H322.631V38.5204H316.047V55.8408H311.719V38.5204H305.135ZM321.392 55.8408L329.47 34.6074H335.14L343.218 55.8408H338.615L336.573 50.3201H328.038L325.995 55.8408H321.392ZM329.379 46.6498H335.231L332.305 38.6721L329.379 46.6498Z" fill="#5858D3"/>
<rect x="9" y="15" width="90" height="60" rx="3" fill="#BE0017"/>
<g filter="url(#filter0_d_70_14)">
<rect x="14" y="19" width="80" height="35" rx="3" fill="white"/>
</g>
<g clip-path="url(#clip1_70_14)">
<g filter="url(#filter1_d_70_14)">
<path d="M9 17.9997C9 15.7877 11.3124 14.3364 13.3044 15.2982L65.5 40.4999L94.1829 18.6666C96.1579 17.1633 99 18.5718 99 21.0538V71.9999C99 73.6568 97.6569 74.9999 96 74.9999H12C10.3431 74.9999 9 73.6568 9 71.9999V17.9997Z" fill="#BE0017"/>
</g>
<g filter="url(#filter2_d_70_14)">
<path d="M12.3309 74.9999C9.28828 74.9999 8.17839 70.9929 10.7875 69.4275L54 43.4999L94.2896 15.5391C96.279 14.1584 99 15.5821 99 18.0037V71.9999C99 73.6568 97.6569 74.9999 96 74.9999H12.3309Z" fill="#BE0017"/>
</g>
</g>
<line x1="73.5" y1="53.5" x2="85.5" y2="53.5" stroke="white" stroke-width="3" stroke-linecap="round"/>
<line x1="68.5" y1="61.5" x2="85.5" y2="61.5" stroke="white" stroke-width="3" stroke-linecap="round"/>
<path d="M118.666 24.8182H129.665L141.281 53.1591H141.776L153.392 24.8182H164.391V67H155.74V39.5447H155.39L144.474 66.794H138.583L127.667 39.4418H127.317V67H118.666V24.8182ZM180.595 67.5973C178.577 67.5973 176.778 67.2472 175.199 66.5469C173.62 65.8329 172.37 64.7824 171.45 63.3956C170.544 61.995 170.091 60.2512 170.091 58.1641C170.091 56.4065 170.413 54.9304 171.059 53.7358C171.704 52.5412 172.583 51.58 173.695 50.8523C174.807 50.1245 176.071 49.5753 177.485 49.2045C178.913 48.8338 180.41 48.5729 181.975 48.4219C183.815 48.2296 185.298 48.0511 186.424 47.8864C187.55 47.7079 188.367 47.447 188.875 47.1037C189.383 46.7604 189.637 46.2524 189.637 45.5795V45.456C189.637 44.1515 189.225 43.1423 188.401 42.4283C187.591 41.7143 186.438 41.3572 184.941 41.3572C183.362 41.3572 182.105 41.7074 181.172 42.4077C180.238 43.0942 179.62 43.9593 179.318 45.0028L171.203 44.3438C171.615 42.4214 172.425 40.7599 173.633 39.3594C174.842 37.9451 176.4 36.8603 178.309 36.1051C180.231 35.3362 182.456 34.9517 184.982 34.9517C186.74 34.9517 188.422 35.1577 190.028 35.5696C191.648 35.9815 193.083 36.62 194.333 37.4851C195.596 38.3501 196.592 39.4624 197.319 40.8217C198.047 42.1674 198.411 43.7808 198.411 45.6619V67H190.09V62.6129H189.843C189.335 63.6016 188.655 64.4735 187.804 65.2287C186.952 65.9702 185.93 66.5537 184.735 66.9794C183.54 67.3913 182.16 67.5973 180.595 67.5973ZM183.108 61.5419C184.398 61.5419 185.538 61.2879 186.527 60.7798C187.515 60.258 188.291 59.5578 188.854 58.679C189.417 57.8002 189.699 56.8047 189.699 55.6925V52.3352C189.424 52.5137 189.046 52.6785 188.566 52.8295C188.099 52.9669 187.57 53.0973 186.98 53.2209C186.39 53.3307 185.799 53.4337 185.209 53.5298C184.618 53.6122 184.083 53.6877 183.602 53.7564C182.572 53.9074 181.673 54.1477 180.904 54.4773C180.135 54.8068 179.538 55.2531 179.112 55.8161C178.686 56.3653 178.474 57.0518 178.474 57.8757C178.474 59.0703 178.906 59.9834 179.771 60.6151C180.65 61.233 181.762 61.5419 183.108 61.5419ZM205.218 67V35.3636H213.992V67H205.218ZM209.626 31.2855C208.321 31.2855 207.202 30.853 206.269 29.9879C205.349 29.1091 204.889 28.0587 204.889 26.8366C204.889 25.6283 205.349 24.5916 206.269 23.7266C207.202 22.8478 208.321 22.4084 209.626 22.4084C210.93 22.4084 212.043 22.8478 212.963 23.7266C213.896 24.5916 214.363 25.6283 214.363 26.8366C214.363 28.0587 213.896 29.1091 212.963 29.9879C212.043 30.853 210.93 31.2855 209.626 31.2855ZM229.795 24.8182V67H221.021V24.8182H229.795Z" fill="#0443F2"/>
</g>
<defs>
<filter id="filter0_d_70_14" x="9" y="14" width="90" height="45" filterUnits="userSpaceOnUse" color-interpolation-filters="sRGB">
<feFlood flood-opacity="0" result="BackgroundImageFix"/>
<feColorMatrix in="SourceAlpha" type="matrix" values="0 0 0 0 0 0 0 0 0 0 0 0 0 0 0 0 0 0 127 0" result="hardAlpha"/>
<feOffset/>
<feGaussianBlur stdDeviation="2.5"/>
<feComposite in2="hardAlpha" operator="out"/>
<feColorMatrix type="matrix" values="0 0 0 0 0 0 0 0 0 0 0 0 0 0 0 0 0 0 0.5 0"/>
<feBlend mode="normal" in2="BackgroundImageFix" result="effect1_dropShadow_70_14"/>
<feBlend mode="normal" in="SourceGraphic" in2="effect1_dropShadow_70_14" result="shape"/>
</filter>
<filter id="filter1_d_70_14" x="4" y="9.99609" width="100" height="70.0039" filterUnits="userSpaceOnUse" color-interpolation-filters="sRGB">
<feFlood flood-opacity="0" result="BackgroundImageFix"/>
<feColorMatrix in="SourceAlpha" type="matrix" values="0 0 0 0 0 0 0 0 0 0 0 0 0 0 0 0 0 0 127 0" result="hardAlpha"/>
<feOffset/>
<feGaussianBlur stdDeviation="2.5"/>
<feComposite in2="hardAlpha" operator="out"/>
<feColorMatrix type="matrix" values="0 0 0 0 0 0 0 0 0 0 0 0 0 0 0 0 0 0 0.8 0"/>
<feBlend mode="normal" in2="BackgroundImageFix" result="effect1_dropShadow_70_14"/>
<feBlend mode="normal" in="SourceGraphic" in2="effect1_dropShadow_70_14" result="shape"/>
</filter>
<filter id="filter2_d_70_14" x="-0.674194" y="4.99854" width="109.674" height="80.0015" filterUnits="userSpaceOnUse" color-interpolation-filters="sRGB">
<feFlood flood-opacity="0" result="BackgroundImageFix"/>
<feColorMatrix in="SourceAlpha" type="matrix" values="0 0 0 0 0 0 0 0 0 0 0 0 0 0 0 0 0 0 127 0" result="hardAlpha"/>
<feOffset/>
<feGaussianBlur stdDeviation="5"/>
<feComposite in2="hardAlpha" operator="out"/>
<feColorMatrix type="matrix" values="0 0 0 0 0 0 0 0 0 0 0 0 0 0 0 0 0 0 0.4 0"/>
<feBlend mode="normal" in2="BackgroundImageFix" result="effect1_dropShadow_70_14"/>
<feBlend mode="normal" in="SourceGraphic" in2="effect1_dropShadow_70_14" result="shape"/>
</filter>
<clipPath id="clip0_70_14">
<rect width="460" height="91" fill="white"/>
</clipPath>
<clipPath id="clip1_70_14">
<rect x="9" y="15" width="90" height="60" rx="3" fill="white"/>
</clipPath>
</defs>
</svg>
