<svg width="460" height="91" viewBox="0 0 80 32" fill="none" xmlns="http://www.w3.org/2000/svg">
    <path d="M38.3274 8.72727H42.3097L46.5156 18.9886H46.6946L50.9006 8.72727H54.8828V24H51.7507V14.0593H51.6239L47.6715 23.9254H45.5387L41.5863 14.022H41.4595V24H38.3274V8.72727ZM60.7499 24.2163C60.0191 24.2163 59.3678 24.0895 58.7961 23.8359C58.2243 23.5774 57.7719 23.1971 57.4388 22.695C57.1107 22.1879 56.9466 21.5565 56.9466 20.8008C56.9466 20.1644 57.0635 19.63 57.2971 19.1974C57.5308 18.7649 57.849 18.4169 58.2517 18.1534C58.6544 17.8899 59.1118 17.6911 59.6238 17.5568C60.1409 17.4226 60.6828 17.3281 61.2496 17.2734C61.9157 17.2038 62.4527 17.1392 62.8604 17.0795C63.268 17.0149 63.5638 16.9205 63.7478 16.7962C63.9317 16.6719 64.0237 16.4879 64.0237 16.2443V16.1996C64.0237 15.7273 63.8746 15.3619 63.5763 15.1033C63.2829 14.8448 62.8653 14.7156 62.3234 14.7156C61.7517 14.7156 61.2968 14.8423 60.9587 15.0959C60.6206 15.3445 60.3969 15.6577 60.2876 16.0355L57.3493 15.7969C57.4985 15.1009 57.7918 14.4993 58.2293 13.9922C58.6668 13.4801 59.2311 13.0874 59.9221 12.8139C60.6182 12.5355 61.4236 12.3963 62.3383 12.3963C62.9747 12.3963 63.5837 12.4709 64.1654 12.62C64.752 12.7692 65.2716 13.0004 65.724 13.3136C66.1814 13.6268 66.5418 14.0295 66.8053 14.5217C67.0688 15.0089 67.2006 15.593 67.2006 16.2741V24H64.1878V22.4116H64.0983C63.9143 22.7695 63.6682 23.0852 63.36 23.3587C63.0518 23.6271 62.6814 23.8384 62.2488 23.9925C61.8163 24.1417 61.3167 24.2163 60.7499 24.2163ZM61.6597 22.0238C62.127 22.0238 62.5397 21.9318 62.8976 21.7479C63.2556 21.5589 63.5365 21.3054 63.7403 20.9872C63.9442 20.669 64.0461 20.3086 64.0461 19.9059V18.6903C63.9466 18.755 63.8099 18.8146 63.6359 18.8693C63.4669 18.919 63.2755 18.9663 63.0617 19.011C62.8479 19.0508 62.6341 19.0881 62.4204 19.1229C62.2066 19.1527 62.0127 19.18 61.8387 19.2049C61.4658 19.2596 61.1402 19.3466 60.8618 19.4659C60.5834 19.5852 60.3671 19.7468 60.213 19.9506C60.0589 20.1495 59.9818 20.3981 59.9818 20.6964C59.9818 21.1289 60.1384 21.4595 60.4516 21.6882C60.7698 21.9119 61.1725 22.0238 61.6597 22.0238ZM69.6652 24V12.5455H72.8421V24H69.6652ZM71.2611 11.0689C70.7888 11.0689 70.3836 10.9123 70.0455 10.5991C69.7124 10.2809 69.5459 9.90057 69.5459 9.4581C69.5459 9.0206 69.7124 8.64524 70.0455 8.33203C70.3836 8.01385 70.7888 7.85476 71.2611 7.85476C71.7334 7.85476 72.1361 8.01385 72.4692 8.33203C72.8073 8.64524 72.9763 9.0206 72.9763 9.4581C72.9763 9.90057 72.8073 10.2809 72.4692 10.5991C72.1361 10.9123 71.7334 11.0689 71.2611 11.0689ZM78.5637 8.72727V24H75.3869V8.72727H78.5637Z"
          fill="#0443F2"/>
    <path d="M30 24C30 25.6569 28.6569 27 27 27H5C3.34315 27 2 25.6569 2 24V10L14.3777 17.9571C15.3659 18.5924 16.6341 18.5924 17.6223 17.9571L30 10V24Z"
          fill="url(#paint0_linear_89_52)"/>
    <path d="M28.0595 5C29.1312 5 30 5.86879 30 6.9405C30 7.60078 29.6643 8.21576 29.1088 8.57281L17.6223 15.9571C16.6341 16.5924 15.3659 16.5924 14.3777 15.9571L2.89115 8.57281C2.33574 8.21576 2 7.60078 2 6.9405C2 5.86879 2.86879 5 3.9405 5H28.0595Z"
          fill="url(#paint1_linear_89_52)"/>
    <defs>
        <linearGradient id="paint0_linear_89_52" x1="2.6665" y1="5.33325" x2="23.5517" y2="31.0318"
                        gradientUnits="userSpaceOnUse">
            <stop stop-color="#E90553"/>
            <stop offset="1" stop-color="#AB043D"/>
        </linearGradient>
        <linearGradient id="paint1_linear_89_52" x1="2.6665" y1="5.33325" x2="23.5517" y2="31.0318"
                        gradientUnits="userSpaceOnUse">
            <stop stop-color="#E90553"/>
            <stop offset="1" stop-color="#AB043D"/>
        </linearGradient>
    </defs>
</svg>
