<svg width="18" height="18" viewBox="0 0 480 480" fill="currentColor" xmlns="http://www.w3.org/2000/svg">
<path d="M240 43.4109L231.184 61.274L211.468 64.139L225.734 78.044L222.367 97.68L240 88.4109L257.634 97.6809L254.266 78.045L268.532 64.14L248.816 61.274L240 43.4109ZM157.093 68.0906L148.277 85.9556L128.561 88.8206L142.828 102.726L139.461 122.362L157.093 113.091L174.728 122.362L171.359 102.726L185.625 88.8206L165.909 85.9556L157.093 68.0906ZM322.907 68.0906L314.09 85.9556L294.375 88.8206L308.641 102.726L305.273 122.362L322.908 113.091L340.539 122.362L337.172 102.726L351.438 88.8206L331.722 85.9556L322.907 68.0906ZM94.2807 131.302L85.4644 149.165L65.7488 152.03L80.0157 165.935L76.6482 185.571L94.2807 176.301L111.915 185.571L108.547 165.935L122.813 152.031L103.097 149.165L94.2807 131.302ZM385.719 131.302L376.902 149.165L357.187 152.03L371.453 165.935L368.085 185.571L385.719 176.301L403.351 185.571L399.983 165.935L414.249 152.03L394.534 149.164L385.718 131.3L385.719 131.302ZM71.7807 214.266L62.9644 232.129L43.2488 234.994L57.5157 248.899L54.1482 268.535L71.7807 259.265L89.415 268.534L86.0466 248.898L100.313 234.994L80.5969 232.129L71.7807 214.265V214.266ZM408.219 214.266L399.402 232.129L379.688 234.994L393.953 248.899L390.586 268.535L408.22 259.265L425.852 268.534L422.484 248.898L436.75 234.993L417.035 232.128L408.219 214.264V214.266ZM94.2807 298.544L85.4644 316.408L65.7488 319.274L80.0157 333.177L76.6482 352.814L94.2807 343.542L111.915 352.814L108.547 333.178L122.813 319.275L103.097 316.408L94.2807 298.544ZM385.719 298.544L376.902 316.408L357.188 319.275L371.453 333.178L368.086 352.815L385.72 343.543L403.352 352.815L399.984 333.179L414.25 319.276L394.535 316.409L385.719 298.545V298.544ZM157.093 360.181L148.277 378.045L128.561 380.911L142.828 394.816L139.461 414.452L157.093 405.18L174.728 414.452L171.359 394.816L185.625 380.911L165.909 378.045L157.093 360.181ZM322.907 360.181L314.09 378.045L294.374 380.911L308.64 394.816L305.273 414.452L322.907 405.18L340.538 414.452L337.171 394.816L351.437 380.911L331.721 378.045L322.907 360.181ZM239.835 382.319L231.019 400.184L211.303 403.048L225.569 416.955L222.203 436.589L222.564 436.399L222.532 436.589L240 427.404L257.468 436.589L257.436 436.399L257.798 436.589L254.432 416.955L268.696 403.048L248.98 400.184L240.164 382.319L239.999 382.652L239.834 382.319H239.835Z"/>
</svg>
